%TF.GenerationSoftware,KiCad,Pcbnew,10.0.3*%
%TF.CreationDate,2026-06-16T19:21:10+05:30*%
%TF.ProjectId,JalRakshak V1,4a616c52-616b-4736-9861-6b2056312e6b,v 1.0*%
%TF.SameCoordinates,Original*%
%TF.FileFunction,Legend,Top*%
%TF.FilePolarity,Positive*%
%FSLAX46Y46*%
G04 Gerber Fmt 4.6, Leading zero omitted, Abs format (unit mm)*
G04 Created by KiCad (PCBNEW 10.0.3) date 2026-06-16 19:21:10*
%MOMM*%
%LPD*%
G01*
G04 APERTURE LIST*
%ADD10C,0.150000*%
%ADD11C,0.120000*%
G04 APERTURE END LIST*
D10*
X53158333Y-40829580D02*
X53110714Y-40877200D01*
X53110714Y-40877200D02*
X52967857Y-40924819D01*
X52967857Y-40924819D02*
X52872619Y-40924819D01*
X52872619Y-40924819D02*
X52729762Y-40877200D01*
X52729762Y-40877200D02*
X52634524Y-40781961D01*
X52634524Y-40781961D02*
X52586905Y-40686723D01*
X52586905Y-40686723D02*
X52539286Y-40496247D01*
X52539286Y-40496247D02*
X52539286Y-40353390D01*
X52539286Y-40353390D02*
X52586905Y-40162914D01*
X52586905Y-40162914D02*
X52634524Y-40067676D01*
X52634524Y-40067676D02*
X52729762Y-39972438D01*
X52729762Y-39972438D02*
X52872619Y-39924819D01*
X52872619Y-39924819D02*
X52967857Y-39924819D01*
X52967857Y-39924819D02*
X53110714Y-39972438D01*
X53110714Y-39972438D02*
X53158333Y-40020057D01*
X54110714Y-40924819D02*
X53539286Y-40924819D01*
X53825000Y-40924819D02*
X53825000Y-39924819D01*
X53825000Y-39924819D02*
X53729762Y-40067676D01*
X53729762Y-40067676D02*
X53634524Y-40162914D01*
X53634524Y-40162914D02*
X53539286Y-40210533D01*
X88666666Y-60304819D02*
X88333333Y-59828628D01*
X88095238Y-60304819D02*
X88095238Y-59304819D01*
X88095238Y-59304819D02*
X88476190Y-59304819D01*
X88476190Y-59304819D02*
X88571428Y-59352438D01*
X88571428Y-59352438D02*
X88619047Y-59400057D01*
X88619047Y-59400057D02*
X88666666Y-59495295D01*
X88666666Y-59495295D02*
X88666666Y-59638152D01*
X88666666Y-59638152D02*
X88619047Y-59733390D01*
X88619047Y-59733390D02*
X88571428Y-59781009D01*
X88571428Y-59781009D02*
X88476190Y-59828628D01*
X88476190Y-59828628D02*
X88095238Y-59828628D01*
X89095238Y-59781009D02*
X89428571Y-59781009D01*
X89571428Y-60304819D02*
X89095238Y-60304819D01*
X89095238Y-60304819D02*
X89095238Y-59304819D01*
X89095238Y-59304819D02*
X89571428Y-59304819D01*
X90333333Y-59781009D02*
X90000000Y-59781009D01*
X90000000Y-60304819D02*
X90000000Y-59304819D01*
X90000000Y-59304819D02*
X90476190Y-59304819D01*
X91000000Y-59304819D02*
X91000000Y-59542914D01*
X90761905Y-59447676D02*
X91000000Y-59542914D01*
X91000000Y-59542914D02*
X91238095Y-59447676D01*
X90857143Y-59733390D02*
X91000000Y-59542914D01*
X91000000Y-59542914D02*
X91142857Y-59733390D01*
X91761905Y-59304819D02*
X91761905Y-59542914D01*
X91523810Y-59447676D02*
X91761905Y-59542914D01*
X91761905Y-59542914D02*
X92000000Y-59447676D01*
X91619048Y-59733390D02*
X91761905Y-59542914D01*
X91761905Y-59542914D02*
X91904762Y-59733390D01*
X66063095Y-52424819D02*
X66063095Y-53234342D01*
X66063095Y-53234342D02*
X66110714Y-53329580D01*
X66110714Y-53329580D02*
X66158333Y-53377200D01*
X66158333Y-53377200D02*
X66253571Y-53424819D01*
X66253571Y-53424819D02*
X66444047Y-53424819D01*
X66444047Y-53424819D02*
X66539285Y-53377200D01*
X66539285Y-53377200D02*
X66586904Y-53329580D01*
X66586904Y-53329580D02*
X66634523Y-53234342D01*
X66634523Y-53234342D02*
X66634523Y-52424819D01*
X67634523Y-53424819D02*
X67063095Y-53424819D01*
X67348809Y-53424819D02*
X67348809Y-52424819D01*
X67348809Y-52424819D02*
X67253571Y-52567676D01*
X67253571Y-52567676D02*
X67158333Y-52662914D01*
X67158333Y-52662914D02*
X67063095Y-52710533D01*
X41666666Y-60304819D02*
X41333333Y-59828628D01*
X41095238Y-60304819D02*
X41095238Y-59304819D01*
X41095238Y-59304819D02*
X41476190Y-59304819D01*
X41476190Y-59304819D02*
X41571428Y-59352438D01*
X41571428Y-59352438D02*
X41619047Y-59400057D01*
X41619047Y-59400057D02*
X41666666Y-59495295D01*
X41666666Y-59495295D02*
X41666666Y-59638152D01*
X41666666Y-59638152D02*
X41619047Y-59733390D01*
X41619047Y-59733390D02*
X41571428Y-59781009D01*
X41571428Y-59781009D02*
X41476190Y-59828628D01*
X41476190Y-59828628D02*
X41095238Y-59828628D01*
X42095238Y-59781009D02*
X42428571Y-59781009D01*
X42571428Y-60304819D02*
X42095238Y-60304819D01*
X42095238Y-60304819D02*
X42095238Y-59304819D01*
X42095238Y-59304819D02*
X42571428Y-59304819D01*
X43333333Y-59781009D02*
X43000000Y-59781009D01*
X43000000Y-60304819D02*
X43000000Y-59304819D01*
X43000000Y-59304819D02*
X43476190Y-59304819D01*
X44000000Y-59304819D02*
X44000000Y-59542914D01*
X43761905Y-59447676D02*
X44000000Y-59542914D01*
X44000000Y-59542914D02*
X44238095Y-59447676D01*
X43857143Y-59733390D02*
X44000000Y-59542914D01*
X44000000Y-59542914D02*
X44142857Y-59733390D01*
X44761905Y-59304819D02*
X44761905Y-59542914D01*
X44523810Y-59447676D02*
X44761905Y-59542914D01*
X44761905Y-59542914D02*
X45000000Y-59447676D01*
X44619048Y-59733390D02*
X44761905Y-59542914D01*
X44761905Y-59542914D02*
X44904762Y-59733390D01*
X82549819Y-44136666D02*
X82073628Y-44469999D01*
X82549819Y-44708094D02*
X81549819Y-44708094D01*
X81549819Y-44708094D02*
X81549819Y-44327142D01*
X81549819Y-44327142D02*
X81597438Y-44231904D01*
X81597438Y-44231904D02*
X81645057Y-44184285D01*
X81645057Y-44184285D02*
X81740295Y-44136666D01*
X81740295Y-44136666D02*
X81883152Y-44136666D01*
X81883152Y-44136666D02*
X81978390Y-44184285D01*
X81978390Y-44184285D02*
X82026009Y-44231904D01*
X82026009Y-44231904D02*
X82073628Y-44327142D01*
X82073628Y-44327142D02*
X82073628Y-44708094D01*
X81549819Y-43803332D02*
X81549819Y-43184285D01*
X81549819Y-43184285D02*
X81930771Y-43517618D01*
X81930771Y-43517618D02*
X81930771Y-43374761D01*
X81930771Y-43374761D02*
X81978390Y-43279523D01*
X81978390Y-43279523D02*
X82026009Y-43231904D01*
X82026009Y-43231904D02*
X82121247Y-43184285D01*
X82121247Y-43184285D02*
X82359342Y-43184285D01*
X82359342Y-43184285D02*
X82454580Y-43231904D01*
X82454580Y-43231904D02*
X82502200Y-43279523D01*
X82502200Y-43279523D02*
X82549819Y-43374761D01*
X82549819Y-43374761D02*
X82549819Y-43660475D01*
X82549819Y-43660475D02*
X82502200Y-43755713D01*
X82502200Y-43755713D02*
X82454580Y-43803332D01*
X81279819Y-59731904D02*
X82089342Y-59731904D01*
X82089342Y-59731904D02*
X82184580Y-59684285D01*
X82184580Y-59684285D02*
X82232200Y-59636666D01*
X82232200Y-59636666D02*
X82279819Y-59541428D01*
X82279819Y-59541428D02*
X82279819Y-59350952D01*
X82279819Y-59350952D02*
X82232200Y-59255714D01*
X82232200Y-59255714D02*
X82184580Y-59208095D01*
X82184580Y-59208095D02*
X82089342Y-59160476D01*
X82089342Y-59160476D02*
X81279819Y-59160476D01*
X82279819Y-58208095D02*
X82279819Y-58684285D01*
X82279819Y-58684285D02*
X81279819Y-58684285D01*
X81279819Y-58017618D02*
X81279819Y-57446190D01*
X82279819Y-57731904D02*
X81279819Y-57731904D01*
X82279819Y-56541428D02*
X81803628Y-56874761D01*
X82279819Y-57112856D02*
X81279819Y-57112856D01*
X81279819Y-57112856D02*
X81279819Y-56731904D01*
X81279819Y-56731904D02*
X81327438Y-56636666D01*
X81327438Y-56636666D02*
X81375057Y-56589047D01*
X81375057Y-56589047D02*
X81470295Y-56541428D01*
X81470295Y-56541428D02*
X81613152Y-56541428D01*
X81613152Y-56541428D02*
X81708390Y-56589047D01*
X81708390Y-56589047D02*
X81756009Y-56636666D01*
X81756009Y-56636666D02*
X81803628Y-56731904D01*
X81803628Y-56731904D02*
X81803628Y-57112856D01*
X81994104Y-56160475D02*
X81994104Y-55684285D01*
X82279819Y-56255713D02*
X81279819Y-55922380D01*
X81279819Y-55922380D02*
X82279819Y-55589047D01*
X82232200Y-55303332D02*
X82279819Y-55160475D01*
X82279819Y-55160475D02*
X82279819Y-54922380D01*
X82279819Y-54922380D02*
X82232200Y-54827142D01*
X82232200Y-54827142D02*
X82184580Y-54779523D01*
X82184580Y-54779523D02*
X82089342Y-54731904D01*
X82089342Y-54731904D02*
X81994104Y-54731904D01*
X81994104Y-54731904D02*
X81898866Y-54779523D01*
X81898866Y-54779523D02*
X81851247Y-54827142D01*
X81851247Y-54827142D02*
X81803628Y-54922380D01*
X81803628Y-54922380D02*
X81756009Y-55112856D01*
X81756009Y-55112856D02*
X81708390Y-55208094D01*
X81708390Y-55208094D02*
X81660771Y-55255713D01*
X81660771Y-55255713D02*
X81565533Y-55303332D01*
X81565533Y-55303332D02*
X81470295Y-55303332D01*
X81470295Y-55303332D02*
X81375057Y-55255713D01*
X81375057Y-55255713D02*
X81327438Y-55208094D01*
X81327438Y-55208094D02*
X81279819Y-55112856D01*
X81279819Y-55112856D02*
X81279819Y-54874761D01*
X81279819Y-54874761D02*
X81327438Y-54731904D01*
X81279819Y-54112856D02*
X81279819Y-53922380D01*
X81279819Y-53922380D02*
X81327438Y-53827142D01*
X81327438Y-53827142D02*
X81422676Y-53731904D01*
X81422676Y-53731904D02*
X81613152Y-53684285D01*
X81613152Y-53684285D02*
X81946485Y-53684285D01*
X81946485Y-53684285D02*
X82136961Y-53731904D01*
X82136961Y-53731904D02*
X82232200Y-53827142D01*
X82232200Y-53827142D02*
X82279819Y-53922380D01*
X82279819Y-53922380D02*
X82279819Y-54112856D01*
X82279819Y-54112856D02*
X82232200Y-54208094D01*
X82232200Y-54208094D02*
X82136961Y-54303332D01*
X82136961Y-54303332D02*
X81946485Y-54350951D01*
X81946485Y-54350951D02*
X81613152Y-54350951D01*
X81613152Y-54350951D02*
X81422676Y-54303332D01*
X81422676Y-54303332D02*
X81327438Y-54208094D01*
X81327438Y-54208094D02*
X81279819Y-54112856D01*
X82279819Y-53255713D02*
X81279819Y-53255713D01*
X81279819Y-53255713D02*
X82279819Y-52684285D01*
X82279819Y-52684285D02*
X81279819Y-52684285D01*
X82279819Y-52208094D02*
X81279819Y-52208094D01*
X82184580Y-51160476D02*
X82232200Y-51208095D01*
X82232200Y-51208095D02*
X82279819Y-51350952D01*
X82279819Y-51350952D02*
X82279819Y-51446190D01*
X82279819Y-51446190D02*
X82232200Y-51589047D01*
X82232200Y-51589047D02*
X82136961Y-51684285D01*
X82136961Y-51684285D02*
X82041723Y-51731904D01*
X82041723Y-51731904D02*
X81851247Y-51779523D01*
X81851247Y-51779523D02*
X81708390Y-51779523D01*
X81708390Y-51779523D02*
X81517914Y-51731904D01*
X81517914Y-51731904D02*
X81422676Y-51684285D01*
X81422676Y-51684285D02*
X81327438Y-51589047D01*
X81327438Y-51589047D02*
X81279819Y-51446190D01*
X81279819Y-51446190D02*
X81279819Y-51350952D01*
X81279819Y-51350952D02*
X81327438Y-51208095D01*
X81327438Y-51208095D02*
X81375057Y-51160476D01*
X44539286Y-47424819D02*
X44539286Y-46424819D01*
X44539286Y-46424819D02*
X44920238Y-46424819D01*
X44920238Y-46424819D02*
X45015476Y-46472438D01*
X45015476Y-46472438D02*
X45063095Y-46520057D01*
X45063095Y-46520057D02*
X45110714Y-46615295D01*
X45110714Y-46615295D02*
X45110714Y-46758152D01*
X45110714Y-46758152D02*
X45063095Y-46853390D01*
X45063095Y-46853390D02*
X45015476Y-46901009D01*
X45015476Y-46901009D02*
X44920238Y-46948628D01*
X44920238Y-46948628D02*
X44539286Y-46948628D01*
X45539286Y-47424819D02*
X45539286Y-46424819D01*
X45539286Y-46901009D02*
X46110714Y-46901009D01*
X46110714Y-47424819D02*
X46110714Y-46424819D01*
X41666666Y-40304819D02*
X41333333Y-39828628D01*
X41095238Y-40304819D02*
X41095238Y-39304819D01*
X41095238Y-39304819D02*
X41476190Y-39304819D01*
X41476190Y-39304819D02*
X41571428Y-39352438D01*
X41571428Y-39352438D02*
X41619047Y-39400057D01*
X41619047Y-39400057D02*
X41666666Y-39495295D01*
X41666666Y-39495295D02*
X41666666Y-39638152D01*
X41666666Y-39638152D02*
X41619047Y-39733390D01*
X41619047Y-39733390D02*
X41571428Y-39781009D01*
X41571428Y-39781009D02*
X41476190Y-39828628D01*
X41476190Y-39828628D02*
X41095238Y-39828628D01*
X42095238Y-39781009D02*
X42428571Y-39781009D01*
X42571428Y-40304819D02*
X42095238Y-40304819D01*
X42095238Y-40304819D02*
X42095238Y-39304819D01*
X42095238Y-39304819D02*
X42571428Y-39304819D01*
X43333333Y-39781009D02*
X43000000Y-39781009D01*
X43000000Y-40304819D02*
X43000000Y-39304819D01*
X43000000Y-39304819D02*
X43476190Y-39304819D01*
X44000000Y-39304819D02*
X44000000Y-39542914D01*
X43761905Y-39447676D02*
X44000000Y-39542914D01*
X44000000Y-39542914D02*
X44238095Y-39447676D01*
X43857143Y-39733390D02*
X44000000Y-39542914D01*
X44000000Y-39542914D02*
X44142857Y-39733390D01*
X44761905Y-39304819D02*
X44761905Y-39542914D01*
X44523810Y-39447676D02*
X44761905Y-39542914D01*
X44761905Y-39542914D02*
X45000000Y-39447676D01*
X44619048Y-39733390D02*
X44761905Y-39542914D01*
X44761905Y-39542914D02*
X44904762Y-39733390D01*
X70063095Y-64424819D02*
X70634523Y-64424819D01*
X70348809Y-65424819D02*
X70348809Y-64424819D01*
X70967857Y-65424819D02*
X70967857Y-64424819D01*
X70967857Y-64424819D02*
X71205952Y-64424819D01*
X71205952Y-64424819D02*
X71348809Y-64472438D01*
X71348809Y-64472438D02*
X71444047Y-64567676D01*
X71444047Y-64567676D02*
X71491666Y-64662914D01*
X71491666Y-64662914D02*
X71539285Y-64853390D01*
X71539285Y-64853390D02*
X71539285Y-64996247D01*
X71539285Y-64996247D02*
X71491666Y-65186723D01*
X71491666Y-65186723D02*
X71444047Y-65281961D01*
X71444047Y-65281961D02*
X71348809Y-65377200D01*
X71348809Y-65377200D02*
X71205952Y-65424819D01*
X71205952Y-65424819D02*
X70967857Y-65424819D01*
X71920238Y-65377200D02*
X72063095Y-65424819D01*
X72063095Y-65424819D02*
X72301190Y-65424819D01*
X72301190Y-65424819D02*
X72396428Y-65377200D01*
X72396428Y-65377200D02*
X72444047Y-65329580D01*
X72444047Y-65329580D02*
X72491666Y-65234342D01*
X72491666Y-65234342D02*
X72491666Y-65139104D01*
X72491666Y-65139104D02*
X72444047Y-65043866D01*
X72444047Y-65043866D02*
X72396428Y-64996247D01*
X72396428Y-64996247D02*
X72301190Y-64948628D01*
X72301190Y-64948628D02*
X72110714Y-64901009D01*
X72110714Y-64901009D02*
X72015476Y-64853390D01*
X72015476Y-64853390D02*
X71967857Y-64805771D01*
X71967857Y-64805771D02*
X71920238Y-64710533D01*
X71920238Y-64710533D02*
X71920238Y-64615295D01*
X71920238Y-64615295D02*
X71967857Y-64520057D01*
X71967857Y-64520057D02*
X72015476Y-64472438D01*
X72015476Y-64472438D02*
X72110714Y-64424819D01*
X72110714Y-64424819D02*
X72348809Y-64424819D01*
X72348809Y-64424819D02*
X72491666Y-64472438D01*
X56515476Y-64424819D02*
X57086904Y-64424819D01*
X56801190Y-65424819D02*
X56801190Y-64424819D01*
X57420238Y-64901009D02*
X57753571Y-64901009D01*
X57896428Y-65424819D02*
X57420238Y-65424819D01*
X57420238Y-65424819D02*
X57420238Y-64424819D01*
X57420238Y-64424819D02*
X57896428Y-64424819D01*
X58325000Y-65424819D02*
X58325000Y-64424819D01*
X58325000Y-64424819D02*
X58658333Y-65139104D01*
X58658333Y-65139104D02*
X58991666Y-64424819D01*
X58991666Y-64424819D02*
X58991666Y-65424819D01*
X59467857Y-65424819D02*
X59467857Y-64424819D01*
X59467857Y-64424819D02*
X59848809Y-64424819D01*
X59848809Y-64424819D02*
X59944047Y-64472438D01*
X59944047Y-64472438D02*
X59991666Y-64520057D01*
X59991666Y-64520057D02*
X60039285Y-64615295D01*
X60039285Y-64615295D02*
X60039285Y-64758152D01*
X60039285Y-64758152D02*
X59991666Y-64853390D01*
X59991666Y-64853390D02*
X59944047Y-64901009D01*
X59944047Y-64901009D02*
X59848809Y-64948628D01*
X59848809Y-64948628D02*
X59467857Y-64948628D01*
X88666666Y-39304819D02*
X88333333Y-38828628D01*
X88095238Y-39304819D02*
X88095238Y-38304819D01*
X88095238Y-38304819D02*
X88476190Y-38304819D01*
X88476190Y-38304819D02*
X88571428Y-38352438D01*
X88571428Y-38352438D02*
X88619047Y-38400057D01*
X88619047Y-38400057D02*
X88666666Y-38495295D01*
X88666666Y-38495295D02*
X88666666Y-38638152D01*
X88666666Y-38638152D02*
X88619047Y-38733390D01*
X88619047Y-38733390D02*
X88571428Y-38781009D01*
X88571428Y-38781009D02*
X88476190Y-38828628D01*
X88476190Y-38828628D02*
X88095238Y-38828628D01*
X89095238Y-38781009D02*
X89428571Y-38781009D01*
X89571428Y-39304819D02*
X89095238Y-39304819D01*
X89095238Y-39304819D02*
X89095238Y-38304819D01*
X89095238Y-38304819D02*
X89571428Y-38304819D01*
X90333333Y-38781009D02*
X90000000Y-38781009D01*
X90000000Y-39304819D02*
X90000000Y-38304819D01*
X90000000Y-38304819D02*
X90476190Y-38304819D01*
X91000000Y-38304819D02*
X91000000Y-38542914D01*
X90761905Y-38447676D02*
X91000000Y-38542914D01*
X91000000Y-38542914D02*
X91238095Y-38447676D01*
X90857143Y-38733390D02*
X91000000Y-38542914D01*
X91000000Y-38542914D02*
X91142857Y-38733390D01*
X91761905Y-38304819D02*
X91761905Y-38542914D01*
X91523810Y-38447676D02*
X91761905Y-38542914D01*
X91761905Y-38542914D02*
X92000000Y-38447676D01*
X91619048Y-38733390D02*
X91761905Y-38542914D01*
X91761905Y-38542914D02*
X91904762Y-38733390D01*
X55279819Y-50565237D02*
X55279819Y-49993809D01*
X56279819Y-50279523D02*
X55279819Y-50279523D01*
X55279819Y-49660475D02*
X56089342Y-49660475D01*
X56089342Y-49660475D02*
X56184580Y-49612856D01*
X56184580Y-49612856D02*
X56232200Y-49565237D01*
X56232200Y-49565237D02*
X56279819Y-49469999D01*
X56279819Y-49469999D02*
X56279819Y-49279523D01*
X56279819Y-49279523D02*
X56232200Y-49184285D01*
X56232200Y-49184285D02*
X56184580Y-49136666D01*
X56184580Y-49136666D02*
X56089342Y-49089047D01*
X56089342Y-49089047D02*
X55279819Y-49089047D01*
X56279819Y-48041428D02*
X55803628Y-48374761D01*
X56279819Y-48612856D02*
X55279819Y-48612856D01*
X55279819Y-48612856D02*
X55279819Y-48231904D01*
X55279819Y-48231904D02*
X55327438Y-48136666D01*
X55327438Y-48136666D02*
X55375057Y-48089047D01*
X55375057Y-48089047D02*
X55470295Y-48041428D01*
X55470295Y-48041428D02*
X55613152Y-48041428D01*
X55613152Y-48041428D02*
X55708390Y-48089047D01*
X55708390Y-48089047D02*
X55756009Y-48136666D01*
X55756009Y-48136666D02*
X55803628Y-48231904D01*
X55803628Y-48231904D02*
X55803628Y-48612856D01*
X55756009Y-47279523D02*
X55803628Y-47136666D01*
X55803628Y-47136666D02*
X55851247Y-47089047D01*
X55851247Y-47089047D02*
X55946485Y-47041428D01*
X55946485Y-47041428D02*
X56089342Y-47041428D01*
X56089342Y-47041428D02*
X56184580Y-47089047D01*
X56184580Y-47089047D02*
X56232200Y-47136666D01*
X56232200Y-47136666D02*
X56279819Y-47231904D01*
X56279819Y-47231904D02*
X56279819Y-47612856D01*
X56279819Y-47612856D02*
X55279819Y-47612856D01*
X55279819Y-47612856D02*
X55279819Y-47279523D01*
X55279819Y-47279523D02*
X55327438Y-47184285D01*
X55327438Y-47184285D02*
X55375057Y-47136666D01*
X55375057Y-47136666D02*
X55470295Y-47089047D01*
X55470295Y-47089047D02*
X55565533Y-47089047D01*
X55565533Y-47089047D02*
X55660771Y-47136666D01*
X55660771Y-47136666D02*
X55708390Y-47184285D01*
X55708390Y-47184285D02*
X55756009Y-47279523D01*
X55756009Y-47279523D02*
X55756009Y-47612856D01*
X56279819Y-46612856D02*
X55279819Y-46612856D01*
X56279819Y-46136666D02*
X55279819Y-46136666D01*
X55279819Y-46136666D02*
X55279819Y-45898571D01*
X55279819Y-45898571D02*
X55327438Y-45755714D01*
X55327438Y-45755714D02*
X55422676Y-45660476D01*
X55422676Y-45660476D02*
X55517914Y-45612857D01*
X55517914Y-45612857D02*
X55708390Y-45565238D01*
X55708390Y-45565238D02*
X55851247Y-45565238D01*
X55851247Y-45565238D02*
X56041723Y-45612857D01*
X56041723Y-45612857D02*
X56136961Y-45660476D01*
X56136961Y-45660476D02*
X56232200Y-45755714D01*
X56232200Y-45755714D02*
X56279819Y-45898571D01*
X56279819Y-45898571D02*
X56279819Y-46136666D01*
X56279819Y-45136666D02*
X55279819Y-45136666D01*
X55279819Y-44803333D02*
X55279819Y-44231905D01*
X56279819Y-44517619D02*
X55279819Y-44517619D01*
X55803628Y-43708095D02*
X56279819Y-43708095D01*
X55279819Y-44041428D02*
X55803628Y-43708095D01*
X55803628Y-43708095D02*
X55279819Y-43374762D01*
X79279819Y-44136666D02*
X78803628Y-44469999D01*
X79279819Y-44708094D02*
X78279819Y-44708094D01*
X78279819Y-44708094D02*
X78279819Y-44327142D01*
X78279819Y-44327142D02*
X78327438Y-44231904D01*
X78327438Y-44231904D02*
X78375057Y-44184285D01*
X78375057Y-44184285D02*
X78470295Y-44136666D01*
X78470295Y-44136666D02*
X78613152Y-44136666D01*
X78613152Y-44136666D02*
X78708390Y-44184285D01*
X78708390Y-44184285D02*
X78756009Y-44231904D01*
X78756009Y-44231904D02*
X78803628Y-44327142D01*
X78803628Y-44327142D02*
X78803628Y-44708094D01*
X78375057Y-43755713D02*
X78327438Y-43708094D01*
X78327438Y-43708094D02*
X78279819Y-43612856D01*
X78279819Y-43612856D02*
X78279819Y-43374761D01*
X78279819Y-43374761D02*
X78327438Y-43279523D01*
X78327438Y-43279523D02*
X78375057Y-43231904D01*
X78375057Y-43231904D02*
X78470295Y-43184285D01*
X78470295Y-43184285D02*
X78565533Y-43184285D01*
X78565533Y-43184285D02*
X78708390Y-43231904D01*
X78708390Y-43231904D02*
X79279819Y-43803332D01*
X79279819Y-43803332D02*
X79279819Y-43184285D01*
X52279819Y-57136666D02*
X51803628Y-57469999D01*
X52279819Y-57708094D02*
X51279819Y-57708094D01*
X51279819Y-57708094D02*
X51279819Y-57327142D01*
X51279819Y-57327142D02*
X51327438Y-57231904D01*
X51327438Y-57231904D02*
X51375057Y-57184285D01*
X51375057Y-57184285D02*
X51470295Y-57136666D01*
X51470295Y-57136666D02*
X51613152Y-57136666D01*
X51613152Y-57136666D02*
X51708390Y-57184285D01*
X51708390Y-57184285D02*
X51756009Y-57231904D01*
X51756009Y-57231904D02*
X51803628Y-57327142D01*
X51803628Y-57327142D02*
X51803628Y-57708094D01*
X52279819Y-56184285D02*
X52279819Y-56755713D01*
X52279819Y-56469999D02*
X51279819Y-56469999D01*
X51279819Y-56469999D02*
X51422676Y-56565237D01*
X51422676Y-56565237D02*
X51517914Y-56660475D01*
X51517914Y-56660475D02*
X51565533Y-56755713D01*
%TO.C,C1*%
D11*
X50705000Y-39100000D02*
X55945000Y-39100000D01*
X50705000Y-39437000D02*
X50705000Y-39100000D01*
X50705000Y-41840000D02*
X50705000Y-41503000D01*
X55945000Y-39100000D02*
X55945000Y-39437000D01*
X55945000Y-41503000D02*
X55945000Y-41840000D01*
X55945000Y-41840000D02*
X50705000Y-41840000D01*
%TO.C,U1*%
X57705000Y-32225000D02*
X57705000Y-38385000D01*
X57705000Y-32225000D02*
X75945000Y-32225000D01*
X57705000Y-57185000D02*
X57705000Y-57965000D01*
X57705000Y-57965000D02*
X58705000Y-57965000D01*
X75945000Y-32225000D02*
X75945000Y-38640000D01*
X75945000Y-57185000D02*
X75945000Y-57965000D01*
X75945000Y-57965000D02*
X74945000Y-57965000D01*
X57700000Y-39110000D02*
X57200000Y-39110000D01*
X57700000Y-38610000D01*
X57700000Y-39110000D01*
G36*
X57700000Y-39110000D02*
G01*
X57200000Y-39110000D01*
X57700000Y-38610000D01*
X57700000Y-39110000D01*
G37*
%TO.C,R3*%
X80725000Y-40700000D02*
X81055000Y-40700000D01*
X80725000Y-47240000D02*
X80725000Y-40700000D01*
X81055000Y-47240000D02*
X80725000Y-47240000D01*
X83135000Y-47240000D02*
X83465000Y-47240000D01*
X83465000Y-40700000D02*
X83135000Y-40700000D01*
X83465000Y-47240000D02*
X83465000Y-40700000D01*
%TO.C,ULTRASONIC*%
X77445000Y-50590000D02*
X78825000Y-50590000D01*
X77445000Y-51970000D02*
X77445000Y-50590000D01*
X77445000Y-53240000D02*
X77445000Y-60970000D01*
X77445000Y-53240000D02*
X80205000Y-53240000D01*
X77445000Y-60970000D02*
X80205000Y-60970000D01*
X80205000Y-53240000D02*
X80205000Y-60970000D01*
%TO.C,PH*%
X47445000Y-43550000D02*
X48825000Y-43550000D01*
X47445000Y-44930000D02*
X47445000Y-43550000D01*
X47445000Y-46200000D02*
X47445000Y-51390000D01*
X47445000Y-46200000D02*
X50205000Y-46200000D01*
X47445000Y-51390000D02*
X50205000Y-51390000D01*
X50205000Y-46200000D02*
X50205000Y-51390000D01*
%TO.C,TDS*%
X67905000Y-62350000D02*
X67905000Y-60970000D01*
X69285000Y-62350000D02*
X67905000Y-62350000D01*
X70555000Y-59590000D02*
X75745000Y-59590000D01*
X70555000Y-62350000D02*
X70555000Y-59590000D01*
X70555000Y-62350000D02*
X75745000Y-62350000D01*
X75745000Y-62350000D02*
X75745000Y-59590000D01*
%TO.C,TEMP*%
X54905000Y-62350000D02*
X54905000Y-60970000D01*
X56285000Y-62350000D02*
X54905000Y-62350000D01*
X57555000Y-59590000D02*
X62745000Y-59590000D01*
X57555000Y-62350000D02*
X57555000Y-59590000D01*
X57555000Y-62350000D02*
X62745000Y-62350000D01*
X62745000Y-62350000D02*
X62745000Y-59590000D01*
%TO.C,TURBIDITY*%
X51945000Y-43550000D02*
X53325000Y-43550000D01*
X51945000Y-44930000D02*
X51945000Y-43550000D01*
X51945000Y-46200000D02*
X51945000Y-51390000D01*
X51945000Y-46200000D02*
X54705000Y-46200000D01*
X51945000Y-51390000D02*
X54705000Y-51390000D01*
X54705000Y-46200000D02*
X54705000Y-51390000D01*
%TO.C,R2*%
X77455000Y-40700000D02*
X77785000Y-40700000D01*
X77455000Y-47240000D02*
X77455000Y-40700000D01*
X77785000Y-47240000D02*
X77455000Y-47240000D01*
X79865000Y-47240000D02*
X80195000Y-47240000D01*
X80195000Y-40700000D02*
X79865000Y-40700000D01*
X80195000Y-47240000D02*
X80195000Y-40700000D01*
%TO.C,R1*%
X50455000Y-53700000D02*
X50785000Y-53700000D01*
X50455000Y-60240000D02*
X50455000Y-53700000D01*
X50785000Y-60240000D02*
X50455000Y-60240000D01*
X52865000Y-60240000D02*
X53195000Y-60240000D01*
X53195000Y-53700000D02*
X52865000Y-53700000D01*
X53195000Y-60240000D02*
X53195000Y-53700000D01*
%TD*%
M02*
