%TF.GenerationSoftware,KiCad,Pcbnew,10.0.3*%
%TF.CreationDate,2026-06-01T12:34:16+05:30*%
%TF.ProjectId,JalRakshak V1,4a616c52-616b-4736-9861-6b2056312e6b,rev?*%
%TF.SameCoordinates,Original*%
%TF.FileFunction,Paste,Top*%
%TF.FilePolarity,Positive*%
%FSLAX46Y46*%
G04 Gerber Fmt 4.6, Leading zero omitted, Abs format (unit mm)*
G04 Created by KiCad (PCBNEW 10.0.3) date 2026-06-01 12:34:16*
%MOMM*%
%LPD*%
G01*
G04 APERTURE LIST*
%ADD10R,1.500000X0.900000*%
%ADD11R,0.900000X1.500000*%
%ADD12R,1.050000X1.050000*%
G04 APERTURE END LIST*
D10*
%TO.C,U1*%
X125750000Y-79865000D03*
X125750000Y-81135000D03*
X125750000Y-82405000D03*
X125750000Y-83675000D03*
X125750000Y-84945000D03*
X125750000Y-86215000D03*
X125750000Y-87485000D03*
X125750000Y-88755000D03*
X125750000Y-90025000D03*
X125750000Y-91295000D03*
X125750000Y-92565000D03*
X125750000Y-93835000D03*
X125750000Y-95105000D03*
X125750000Y-96375000D03*
D11*
X128790000Y-97625000D03*
X130060000Y-97625000D03*
X131330000Y-97625000D03*
X132600000Y-97625000D03*
X133870000Y-97625000D03*
X135140000Y-97625000D03*
X136410000Y-97625000D03*
X137680000Y-97625000D03*
X138950000Y-97625000D03*
X140220000Y-97625000D03*
D10*
X143250000Y-96375000D03*
X143250000Y-95105000D03*
X143250000Y-93835000D03*
X143250000Y-92565000D03*
X143250000Y-91295000D03*
X143250000Y-90025000D03*
X143250000Y-88755000D03*
X143250000Y-87485000D03*
X143250000Y-86215000D03*
X143250000Y-84945000D03*
X143250000Y-83675000D03*
X143250000Y-82405000D03*
X143250000Y-81135000D03*
X143250000Y-79865000D03*
D12*
X132295000Y-85680000D03*
X132295000Y-87205000D03*
X132295000Y-88730000D03*
X133820000Y-85680000D03*
X133820000Y-87205000D03*
X133820000Y-88730000D03*
X135345000Y-85680000D03*
X135345000Y-87205000D03*
X135345000Y-88730000D03*
%TD*%
M02*
