M48
; DRILL file KiCad 10.0.3 date 2026-06-01T12:34:51
; FORMAT={-:-/ absolute / metric / decimal}
; #@! TF.CreationDate,2026-06-01T12:34:51+05:30
; #@! TF.GenerationSoftware,Kicad,Pcbnew,10.0.3
; #@! TF.FileFunction,Plated,1,2,PTH
FMAT,2
METRIC
; #@! TA.AperFunction,Plated,PTH,ComponentDrill
T1C0.200
; #@! TA.AperFunction,Plated,PTH,ComponentDrill
T2C0.800
; #@! TA.AperFunction,Plated,PTH,ComponentDrill
T3C1.000
%
G90
G05
T1
X132.295Y-86.442
X132.295Y-87.968
X133.058Y-85.68
X133.058Y-87.205
X133.058Y-88.73
X133.82Y-86.442
X133.82Y-87.968
X134.582Y-85.68
X134.582Y-87.205
X134.582Y-88.73
X135.345Y-86.442
X135.345Y-87.968
T2
X118.5Y-80.5
X119.5Y-93.19
X119.5Y-100.81
X123.5Y-80.5
X146.5Y-80.19
X146.5Y-87.81
X149.77Y-80.19
X149.77Y-87.81
T3
X116.5Y-84.96
X116.5Y-87.5
X116.5Y-90.04
X121.0Y-84.96
X121.0Y-87.5
X121.0Y-90.04
X123.96Y-101.0
X126.5Y-101.0
X129.04Y-101.0
X136.96Y-101.0
X139.5Y-101.0
X142.04Y-101.0
X146.5Y-92.0
X146.5Y-94.54
X146.5Y-97.08
X146.5Y-99.62
M30
