M48
; DRILL file KiCad 10.0.3 date 2026-06-16T19:21:17
; FORMAT={-:-/ absolute / metric / decimal}
; #@! TF.CreationDate,2026-06-16T19:21:17+05:30
; #@! TF.GenerationSoftware,Kicad,Pcbnew,10.0.3
; #@! TF.FileFunction,Plated,1,2,PTH
FMAT,2
METRIC
; #@! TA.AperFunction,Plated,PTH,ComponentDrill
T1C0.200
; #@! TA.AperFunction,Plated,PTH,ComponentDrill
T2C0.800
; #@! TA.AperFunction,Plated,PTH,ComponentDrill
T3C1.000
%
G90
G05
T1
X64.62Y-46.413
X64.62Y-47.938
X65.382Y-45.65
X65.382Y-47.175
X65.382Y-48.7
X66.145Y-46.413
X66.145Y-47.938
X66.907Y-45.65
X66.907Y-47.175
X66.907Y-48.7
X67.67Y-46.413
X67.67Y-47.938
T2
X50.825Y-40.47
X51.825Y-53.16
X51.825Y-60.78
X55.825Y-40.47
X78.825Y-40.16
X78.825Y-47.78
X82.095Y-40.16
X82.095Y-47.78
T3
X48.825Y-44.93
X48.825Y-47.47
X48.825Y-50.01
X53.325Y-44.93
X53.325Y-47.47
X53.325Y-50.01
X56.285Y-60.97
X58.825Y-60.97
X61.365Y-60.97
X69.285Y-60.97
X71.825Y-60.97
X74.365Y-60.97
X78.825Y-51.97
X78.825Y-54.51
X78.825Y-57.05
X78.825Y-59.59
M30
