%TF.GenerationSoftware,KiCad,Pcbnew,10.0.3*%
%TF.CreationDate,2026-06-01T12:34:16+05:30*%
%TF.ProjectId,JalRakshak V1,4a616c52-616b-4736-9861-6b2056312e6b,rev?*%
%TF.SameCoordinates,Original*%
%TF.FileFunction,Legend,Top*%
%TF.FilePolarity,Positive*%
%FSLAX46Y46*%
G04 Gerber Fmt 4.6, Leading zero omitted, Abs format (unit mm)*
G04 Created by KiCad (PCBNEW 10.0.3) date 2026-06-01 12:34:16*
%MOMM*%
%LPD*%
G01*
G04 APERTURE LIST*
%ADD10C,0.150000*%
%ADD11C,0.120000*%
G04 APERTURE END LIST*
D10*
X120833333Y-80859580D02*
X120785714Y-80907200D01*
X120785714Y-80907200D02*
X120642857Y-80954819D01*
X120642857Y-80954819D02*
X120547619Y-80954819D01*
X120547619Y-80954819D02*
X120404762Y-80907200D01*
X120404762Y-80907200D02*
X120309524Y-80811961D01*
X120309524Y-80811961D02*
X120261905Y-80716723D01*
X120261905Y-80716723D02*
X120214286Y-80526247D01*
X120214286Y-80526247D02*
X120214286Y-80383390D01*
X120214286Y-80383390D02*
X120261905Y-80192914D01*
X120261905Y-80192914D02*
X120309524Y-80097676D01*
X120309524Y-80097676D02*
X120404762Y-80002438D01*
X120404762Y-80002438D02*
X120547619Y-79954819D01*
X120547619Y-79954819D02*
X120642857Y-79954819D01*
X120642857Y-79954819D02*
X120785714Y-80002438D01*
X120785714Y-80002438D02*
X120833333Y-80050057D01*
X121785714Y-80954819D02*
X121214286Y-80954819D01*
X121500000Y-80954819D02*
X121500000Y-79954819D01*
X121500000Y-79954819D02*
X121404762Y-80097676D01*
X121404762Y-80097676D02*
X121309524Y-80192914D01*
X121309524Y-80192914D02*
X121214286Y-80240533D01*
X133738095Y-92454819D02*
X133738095Y-93264342D01*
X133738095Y-93264342D02*
X133785714Y-93359580D01*
X133785714Y-93359580D02*
X133833333Y-93407200D01*
X133833333Y-93407200D02*
X133928571Y-93454819D01*
X133928571Y-93454819D02*
X134119047Y-93454819D01*
X134119047Y-93454819D02*
X134214285Y-93407200D01*
X134214285Y-93407200D02*
X134261904Y-93359580D01*
X134261904Y-93359580D02*
X134309523Y-93264342D01*
X134309523Y-93264342D02*
X134309523Y-92454819D01*
X135309523Y-93454819D02*
X134738095Y-93454819D01*
X135023809Y-93454819D02*
X135023809Y-92454819D01*
X135023809Y-92454819D02*
X134928571Y-92597676D01*
X134928571Y-92597676D02*
X134833333Y-92692914D01*
X134833333Y-92692914D02*
X134738095Y-92740533D01*
X150224819Y-84166666D02*
X149748628Y-84499999D01*
X150224819Y-84738094D02*
X149224819Y-84738094D01*
X149224819Y-84738094D02*
X149224819Y-84357142D01*
X149224819Y-84357142D02*
X149272438Y-84261904D01*
X149272438Y-84261904D02*
X149320057Y-84214285D01*
X149320057Y-84214285D02*
X149415295Y-84166666D01*
X149415295Y-84166666D02*
X149558152Y-84166666D01*
X149558152Y-84166666D02*
X149653390Y-84214285D01*
X149653390Y-84214285D02*
X149701009Y-84261904D01*
X149701009Y-84261904D02*
X149748628Y-84357142D01*
X149748628Y-84357142D02*
X149748628Y-84738094D01*
X149224819Y-83833332D02*
X149224819Y-83214285D01*
X149224819Y-83214285D02*
X149605771Y-83547618D01*
X149605771Y-83547618D02*
X149605771Y-83404761D01*
X149605771Y-83404761D02*
X149653390Y-83309523D01*
X149653390Y-83309523D02*
X149701009Y-83261904D01*
X149701009Y-83261904D02*
X149796247Y-83214285D01*
X149796247Y-83214285D02*
X150034342Y-83214285D01*
X150034342Y-83214285D02*
X150129580Y-83261904D01*
X150129580Y-83261904D02*
X150177200Y-83309523D01*
X150177200Y-83309523D02*
X150224819Y-83404761D01*
X150224819Y-83404761D02*
X150224819Y-83690475D01*
X150224819Y-83690475D02*
X150177200Y-83785713D01*
X150177200Y-83785713D02*
X150129580Y-83833332D01*
X149428571Y-92454819D02*
X149428571Y-93264342D01*
X149428571Y-93264342D02*
X149476190Y-93359580D01*
X149476190Y-93359580D02*
X149523809Y-93407200D01*
X149523809Y-93407200D02*
X149619047Y-93454819D01*
X149619047Y-93454819D02*
X149809523Y-93454819D01*
X149809523Y-93454819D02*
X149904761Y-93407200D01*
X149904761Y-93407200D02*
X149952380Y-93359580D01*
X149952380Y-93359580D02*
X149999999Y-93264342D01*
X149999999Y-93264342D02*
X149999999Y-92454819D01*
X150952380Y-93454819D02*
X150476190Y-93454819D01*
X150476190Y-93454819D02*
X150476190Y-92454819D01*
X151142857Y-92454819D02*
X151714285Y-92454819D01*
X151428571Y-93454819D02*
X151428571Y-92454819D01*
X152619047Y-93454819D02*
X152285714Y-92978628D01*
X152047619Y-93454819D02*
X152047619Y-92454819D01*
X152047619Y-92454819D02*
X152428571Y-92454819D01*
X152428571Y-92454819D02*
X152523809Y-92502438D01*
X152523809Y-92502438D02*
X152571428Y-92550057D01*
X152571428Y-92550057D02*
X152619047Y-92645295D01*
X152619047Y-92645295D02*
X152619047Y-92788152D01*
X152619047Y-92788152D02*
X152571428Y-92883390D01*
X152571428Y-92883390D02*
X152523809Y-92931009D01*
X152523809Y-92931009D02*
X152428571Y-92978628D01*
X152428571Y-92978628D02*
X152047619Y-92978628D01*
X153000000Y-93169104D02*
X153476190Y-93169104D01*
X152904762Y-93454819D02*
X153238095Y-92454819D01*
X153238095Y-92454819D02*
X153571428Y-93454819D01*
X153857143Y-93407200D02*
X154000000Y-93454819D01*
X154000000Y-93454819D02*
X154238095Y-93454819D01*
X154238095Y-93454819D02*
X154333333Y-93407200D01*
X154333333Y-93407200D02*
X154380952Y-93359580D01*
X154380952Y-93359580D02*
X154428571Y-93264342D01*
X154428571Y-93264342D02*
X154428571Y-93169104D01*
X154428571Y-93169104D02*
X154380952Y-93073866D01*
X154380952Y-93073866D02*
X154333333Y-93026247D01*
X154333333Y-93026247D02*
X154238095Y-92978628D01*
X154238095Y-92978628D02*
X154047619Y-92931009D01*
X154047619Y-92931009D02*
X153952381Y-92883390D01*
X153952381Y-92883390D02*
X153904762Y-92835771D01*
X153904762Y-92835771D02*
X153857143Y-92740533D01*
X153857143Y-92740533D02*
X153857143Y-92645295D01*
X153857143Y-92645295D02*
X153904762Y-92550057D01*
X153904762Y-92550057D02*
X153952381Y-92502438D01*
X153952381Y-92502438D02*
X154047619Y-92454819D01*
X154047619Y-92454819D02*
X154285714Y-92454819D01*
X154285714Y-92454819D02*
X154428571Y-92502438D01*
X155047619Y-92454819D02*
X155238095Y-92454819D01*
X155238095Y-92454819D02*
X155333333Y-92502438D01*
X155333333Y-92502438D02*
X155428571Y-92597676D01*
X155428571Y-92597676D02*
X155476190Y-92788152D01*
X155476190Y-92788152D02*
X155476190Y-93121485D01*
X155476190Y-93121485D02*
X155428571Y-93311961D01*
X155428571Y-93311961D02*
X155333333Y-93407200D01*
X155333333Y-93407200D02*
X155238095Y-93454819D01*
X155238095Y-93454819D02*
X155047619Y-93454819D01*
X155047619Y-93454819D02*
X154952381Y-93407200D01*
X154952381Y-93407200D02*
X154857143Y-93311961D01*
X154857143Y-93311961D02*
X154809524Y-93121485D01*
X154809524Y-93121485D02*
X154809524Y-92788152D01*
X154809524Y-92788152D02*
X154857143Y-92597676D01*
X154857143Y-92597676D02*
X154952381Y-92502438D01*
X154952381Y-92502438D02*
X155047619Y-92454819D01*
X155904762Y-93454819D02*
X155904762Y-92454819D01*
X155904762Y-92454819D02*
X156476190Y-93454819D01*
X156476190Y-93454819D02*
X156476190Y-92454819D01*
X156952381Y-93454819D02*
X156952381Y-92454819D01*
X157999999Y-93359580D02*
X157952380Y-93407200D01*
X157952380Y-93407200D02*
X157809523Y-93454819D01*
X157809523Y-93454819D02*
X157714285Y-93454819D01*
X157714285Y-93454819D02*
X157571428Y-93407200D01*
X157571428Y-93407200D02*
X157476190Y-93311961D01*
X157476190Y-93311961D02*
X157428571Y-93216723D01*
X157428571Y-93216723D02*
X157380952Y-93026247D01*
X157380952Y-93026247D02*
X157380952Y-92883390D01*
X157380952Y-92883390D02*
X157428571Y-92692914D01*
X157428571Y-92692914D02*
X157476190Y-92597676D01*
X157476190Y-92597676D02*
X157571428Y-92502438D01*
X157571428Y-92502438D02*
X157714285Y-92454819D01*
X157714285Y-92454819D02*
X157809523Y-92454819D01*
X157809523Y-92454819D02*
X157952380Y-92502438D01*
X157952380Y-92502438D02*
X157999999Y-92550057D01*
X158190476Y-93550057D02*
X158952380Y-93550057D01*
X159142857Y-93407200D02*
X159285714Y-93454819D01*
X159285714Y-93454819D02*
X159523809Y-93454819D01*
X159523809Y-93454819D02*
X159619047Y-93407200D01*
X159619047Y-93407200D02*
X159666666Y-93359580D01*
X159666666Y-93359580D02*
X159714285Y-93264342D01*
X159714285Y-93264342D02*
X159714285Y-93169104D01*
X159714285Y-93169104D02*
X159666666Y-93073866D01*
X159666666Y-93073866D02*
X159619047Y-93026247D01*
X159619047Y-93026247D02*
X159523809Y-92978628D01*
X159523809Y-92978628D02*
X159333333Y-92931009D01*
X159333333Y-92931009D02*
X159238095Y-92883390D01*
X159238095Y-92883390D02*
X159190476Y-92835771D01*
X159190476Y-92835771D02*
X159142857Y-92740533D01*
X159142857Y-92740533D02*
X159142857Y-92645295D01*
X159142857Y-92645295D02*
X159190476Y-92550057D01*
X159190476Y-92550057D02*
X159238095Y-92502438D01*
X159238095Y-92502438D02*
X159333333Y-92454819D01*
X159333333Y-92454819D02*
X159571428Y-92454819D01*
X159571428Y-92454819D02*
X159714285Y-92502438D01*
X160142857Y-92931009D02*
X160476190Y-92931009D01*
X160619047Y-93454819D02*
X160142857Y-93454819D01*
X160142857Y-93454819D02*
X160142857Y-92454819D01*
X160142857Y-92454819D02*
X160619047Y-92454819D01*
X161047619Y-93454819D02*
X161047619Y-92454819D01*
X161047619Y-92454819D02*
X161619047Y-93454819D01*
X161619047Y-93454819D02*
X161619047Y-92454819D01*
X162047619Y-93407200D02*
X162190476Y-93454819D01*
X162190476Y-93454819D02*
X162428571Y-93454819D01*
X162428571Y-93454819D02*
X162523809Y-93407200D01*
X162523809Y-93407200D02*
X162571428Y-93359580D01*
X162571428Y-93359580D02*
X162619047Y-93264342D01*
X162619047Y-93264342D02*
X162619047Y-93169104D01*
X162619047Y-93169104D02*
X162571428Y-93073866D01*
X162571428Y-93073866D02*
X162523809Y-93026247D01*
X162523809Y-93026247D02*
X162428571Y-92978628D01*
X162428571Y-92978628D02*
X162238095Y-92931009D01*
X162238095Y-92931009D02*
X162142857Y-92883390D01*
X162142857Y-92883390D02*
X162095238Y-92835771D01*
X162095238Y-92835771D02*
X162047619Y-92740533D01*
X162047619Y-92740533D02*
X162047619Y-92645295D01*
X162047619Y-92645295D02*
X162095238Y-92550057D01*
X162095238Y-92550057D02*
X162142857Y-92502438D01*
X162142857Y-92502438D02*
X162238095Y-92454819D01*
X162238095Y-92454819D02*
X162476190Y-92454819D01*
X162476190Y-92454819D02*
X162619047Y-92502438D01*
X163238095Y-92454819D02*
X163428571Y-92454819D01*
X163428571Y-92454819D02*
X163523809Y-92502438D01*
X163523809Y-92502438D02*
X163619047Y-92597676D01*
X163619047Y-92597676D02*
X163666666Y-92788152D01*
X163666666Y-92788152D02*
X163666666Y-93121485D01*
X163666666Y-93121485D02*
X163619047Y-93311961D01*
X163619047Y-93311961D02*
X163523809Y-93407200D01*
X163523809Y-93407200D02*
X163428571Y-93454819D01*
X163428571Y-93454819D02*
X163238095Y-93454819D01*
X163238095Y-93454819D02*
X163142857Y-93407200D01*
X163142857Y-93407200D02*
X163047619Y-93311961D01*
X163047619Y-93311961D02*
X163000000Y-93121485D01*
X163000000Y-93121485D02*
X163000000Y-92788152D01*
X163000000Y-92788152D02*
X163047619Y-92597676D01*
X163047619Y-92597676D02*
X163142857Y-92502438D01*
X163142857Y-92502438D02*
X163238095Y-92454819D01*
X164666666Y-93454819D02*
X164333333Y-92978628D01*
X164095238Y-93454819D02*
X164095238Y-92454819D01*
X164095238Y-92454819D02*
X164476190Y-92454819D01*
X164476190Y-92454819D02*
X164571428Y-92502438D01*
X164571428Y-92502438D02*
X164619047Y-92550057D01*
X164619047Y-92550057D02*
X164666666Y-92645295D01*
X164666666Y-92645295D02*
X164666666Y-92788152D01*
X164666666Y-92788152D02*
X164619047Y-92883390D01*
X164619047Y-92883390D02*
X164571428Y-92931009D01*
X164571428Y-92931009D02*
X164476190Y-92978628D01*
X164476190Y-92978628D02*
X164095238Y-92978628D01*
X165619047Y-93454819D02*
X165047619Y-93454819D01*
X165333333Y-93454819D02*
X165333333Y-92454819D01*
X165333333Y-92454819D02*
X165238095Y-92597676D01*
X165238095Y-92597676D02*
X165142857Y-92692914D01*
X165142857Y-92692914D02*
X165047619Y-92740533D01*
X82904762Y-84954819D02*
X82904762Y-83954819D01*
X82904762Y-83954819D02*
X83285714Y-83954819D01*
X83285714Y-83954819D02*
X83380952Y-84002438D01*
X83380952Y-84002438D02*
X83428571Y-84050057D01*
X83428571Y-84050057D02*
X83476190Y-84145295D01*
X83476190Y-84145295D02*
X83476190Y-84288152D01*
X83476190Y-84288152D02*
X83428571Y-84383390D01*
X83428571Y-84383390D02*
X83380952Y-84431009D01*
X83380952Y-84431009D02*
X83285714Y-84478628D01*
X83285714Y-84478628D02*
X82904762Y-84478628D01*
X83904762Y-84954819D02*
X83904762Y-83954819D01*
X83904762Y-84431009D02*
X84476190Y-84431009D01*
X84476190Y-84954819D02*
X84476190Y-83954819D01*
X84714286Y-85050057D02*
X85476190Y-85050057D01*
X85666667Y-84907200D02*
X85809524Y-84954819D01*
X85809524Y-84954819D02*
X86047619Y-84954819D01*
X86047619Y-84954819D02*
X86142857Y-84907200D01*
X86142857Y-84907200D02*
X86190476Y-84859580D01*
X86190476Y-84859580D02*
X86238095Y-84764342D01*
X86238095Y-84764342D02*
X86238095Y-84669104D01*
X86238095Y-84669104D02*
X86190476Y-84573866D01*
X86190476Y-84573866D02*
X86142857Y-84526247D01*
X86142857Y-84526247D02*
X86047619Y-84478628D01*
X86047619Y-84478628D02*
X85857143Y-84431009D01*
X85857143Y-84431009D02*
X85761905Y-84383390D01*
X85761905Y-84383390D02*
X85714286Y-84335771D01*
X85714286Y-84335771D02*
X85666667Y-84240533D01*
X85666667Y-84240533D02*
X85666667Y-84145295D01*
X85666667Y-84145295D02*
X85714286Y-84050057D01*
X85714286Y-84050057D02*
X85761905Y-84002438D01*
X85761905Y-84002438D02*
X85857143Y-83954819D01*
X85857143Y-83954819D02*
X86095238Y-83954819D01*
X86095238Y-83954819D02*
X86238095Y-84002438D01*
X86666667Y-84431009D02*
X87000000Y-84431009D01*
X87142857Y-84954819D02*
X86666667Y-84954819D01*
X86666667Y-84954819D02*
X86666667Y-83954819D01*
X86666667Y-83954819D02*
X87142857Y-83954819D01*
X87571429Y-84954819D02*
X87571429Y-83954819D01*
X87571429Y-83954819D02*
X88142857Y-84954819D01*
X88142857Y-84954819D02*
X88142857Y-83954819D01*
X88571429Y-84907200D02*
X88714286Y-84954819D01*
X88714286Y-84954819D02*
X88952381Y-84954819D01*
X88952381Y-84954819D02*
X89047619Y-84907200D01*
X89047619Y-84907200D02*
X89095238Y-84859580D01*
X89095238Y-84859580D02*
X89142857Y-84764342D01*
X89142857Y-84764342D02*
X89142857Y-84669104D01*
X89142857Y-84669104D02*
X89095238Y-84573866D01*
X89095238Y-84573866D02*
X89047619Y-84526247D01*
X89047619Y-84526247D02*
X88952381Y-84478628D01*
X88952381Y-84478628D02*
X88761905Y-84431009D01*
X88761905Y-84431009D02*
X88666667Y-84383390D01*
X88666667Y-84383390D02*
X88619048Y-84335771D01*
X88619048Y-84335771D02*
X88571429Y-84240533D01*
X88571429Y-84240533D02*
X88571429Y-84145295D01*
X88571429Y-84145295D02*
X88619048Y-84050057D01*
X88619048Y-84050057D02*
X88666667Y-84002438D01*
X88666667Y-84002438D02*
X88761905Y-83954819D01*
X88761905Y-83954819D02*
X89000000Y-83954819D01*
X89000000Y-83954819D02*
X89142857Y-84002438D01*
X89761905Y-83954819D02*
X89952381Y-83954819D01*
X89952381Y-83954819D02*
X90047619Y-84002438D01*
X90047619Y-84002438D02*
X90142857Y-84097676D01*
X90142857Y-84097676D02*
X90190476Y-84288152D01*
X90190476Y-84288152D02*
X90190476Y-84621485D01*
X90190476Y-84621485D02*
X90142857Y-84811961D01*
X90142857Y-84811961D02*
X90047619Y-84907200D01*
X90047619Y-84907200D02*
X89952381Y-84954819D01*
X89952381Y-84954819D02*
X89761905Y-84954819D01*
X89761905Y-84954819D02*
X89666667Y-84907200D01*
X89666667Y-84907200D02*
X89571429Y-84811961D01*
X89571429Y-84811961D02*
X89523810Y-84621485D01*
X89523810Y-84621485D02*
X89523810Y-84288152D01*
X89523810Y-84288152D02*
X89571429Y-84097676D01*
X89571429Y-84097676D02*
X89666667Y-84002438D01*
X89666667Y-84002438D02*
X89761905Y-83954819D01*
X91190476Y-84954819D02*
X90857143Y-84478628D01*
X90619048Y-84954819D02*
X90619048Y-83954819D01*
X90619048Y-83954819D02*
X91000000Y-83954819D01*
X91000000Y-83954819D02*
X91095238Y-84002438D01*
X91095238Y-84002438D02*
X91142857Y-84050057D01*
X91142857Y-84050057D02*
X91190476Y-84145295D01*
X91190476Y-84145295D02*
X91190476Y-84288152D01*
X91190476Y-84288152D02*
X91142857Y-84383390D01*
X91142857Y-84383390D02*
X91095238Y-84431009D01*
X91095238Y-84431009D02*
X91000000Y-84478628D01*
X91000000Y-84478628D02*
X90619048Y-84478628D01*
X92142857Y-84954819D02*
X91571429Y-84954819D01*
X91857143Y-84954819D02*
X91857143Y-83954819D01*
X91857143Y-83954819D02*
X91761905Y-84097676D01*
X91761905Y-84097676D02*
X91666667Y-84192914D01*
X91666667Y-84192914D02*
X91571429Y-84240533D01*
X135928571Y-105454819D02*
X136499999Y-105454819D01*
X136214285Y-106454819D02*
X136214285Y-105454819D01*
X136833333Y-106454819D02*
X136833333Y-105454819D01*
X136833333Y-105454819D02*
X137071428Y-105454819D01*
X137071428Y-105454819D02*
X137214285Y-105502438D01*
X137214285Y-105502438D02*
X137309523Y-105597676D01*
X137309523Y-105597676D02*
X137357142Y-105692914D01*
X137357142Y-105692914D02*
X137404761Y-105883390D01*
X137404761Y-105883390D02*
X137404761Y-106026247D01*
X137404761Y-106026247D02*
X137357142Y-106216723D01*
X137357142Y-106216723D02*
X137309523Y-106311961D01*
X137309523Y-106311961D02*
X137214285Y-106407200D01*
X137214285Y-106407200D02*
X137071428Y-106454819D01*
X137071428Y-106454819D02*
X136833333Y-106454819D01*
X137785714Y-106407200D02*
X137928571Y-106454819D01*
X137928571Y-106454819D02*
X138166666Y-106454819D01*
X138166666Y-106454819D02*
X138261904Y-106407200D01*
X138261904Y-106407200D02*
X138309523Y-106359580D01*
X138309523Y-106359580D02*
X138357142Y-106264342D01*
X138357142Y-106264342D02*
X138357142Y-106169104D01*
X138357142Y-106169104D02*
X138309523Y-106073866D01*
X138309523Y-106073866D02*
X138261904Y-106026247D01*
X138261904Y-106026247D02*
X138166666Y-105978628D01*
X138166666Y-105978628D02*
X137976190Y-105931009D01*
X137976190Y-105931009D02*
X137880952Y-105883390D01*
X137880952Y-105883390D02*
X137833333Y-105835771D01*
X137833333Y-105835771D02*
X137785714Y-105740533D01*
X137785714Y-105740533D02*
X137785714Y-105645295D01*
X137785714Y-105645295D02*
X137833333Y-105550057D01*
X137833333Y-105550057D02*
X137880952Y-105502438D01*
X137880952Y-105502438D02*
X137976190Y-105454819D01*
X137976190Y-105454819D02*
X138214285Y-105454819D01*
X138214285Y-105454819D02*
X138357142Y-105502438D01*
X138547619Y-106550057D02*
X139309523Y-106550057D01*
X139500000Y-106407200D02*
X139642857Y-106454819D01*
X139642857Y-106454819D02*
X139880952Y-106454819D01*
X139880952Y-106454819D02*
X139976190Y-106407200D01*
X139976190Y-106407200D02*
X140023809Y-106359580D01*
X140023809Y-106359580D02*
X140071428Y-106264342D01*
X140071428Y-106264342D02*
X140071428Y-106169104D01*
X140071428Y-106169104D02*
X140023809Y-106073866D01*
X140023809Y-106073866D02*
X139976190Y-106026247D01*
X139976190Y-106026247D02*
X139880952Y-105978628D01*
X139880952Y-105978628D02*
X139690476Y-105931009D01*
X139690476Y-105931009D02*
X139595238Y-105883390D01*
X139595238Y-105883390D02*
X139547619Y-105835771D01*
X139547619Y-105835771D02*
X139500000Y-105740533D01*
X139500000Y-105740533D02*
X139500000Y-105645295D01*
X139500000Y-105645295D02*
X139547619Y-105550057D01*
X139547619Y-105550057D02*
X139595238Y-105502438D01*
X139595238Y-105502438D02*
X139690476Y-105454819D01*
X139690476Y-105454819D02*
X139928571Y-105454819D01*
X139928571Y-105454819D02*
X140071428Y-105502438D01*
X140500000Y-105931009D02*
X140833333Y-105931009D01*
X140976190Y-106454819D02*
X140500000Y-106454819D01*
X140500000Y-106454819D02*
X140500000Y-105454819D01*
X140500000Y-105454819D02*
X140976190Y-105454819D01*
X141404762Y-106454819D02*
X141404762Y-105454819D01*
X141404762Y-105454819D02*
X141976190Y-106454819D01*
X141976190Y-106454819D02*
X141976190Y-105454819D01*
X142404762Y-106407200D02*
X142547619Y-106454819D01*
X142547619Y-106454819D02*
X142785714Y-106454819D01*
X142785714Y-106454819D02*
X142880952Y-106407200D01*
X142880952Y-106407200D02*
X142928571Y-106359580D01*
X142928571Y-106359580D02*
X142976190Y-106264342D01*
X142976190Y-106264342D02*
X142976190Y-106169104D01*
X142976190Y-106169104D02*
X142928571Y-106073866D01*
X142928571Y-106073866D02*
X142880952Y-106026247D01*
X142880952Y-106026247D02*
X142785714Y-105978628D01*
X142785714Y-105978628D02*
X142595238Y-105931009D01*
X142595238Y-105931009D02*
X142500000Y-105883390D01*
X142500000Y-105883390D02*
X142452381Y-105835771D01*
X142452381Y-105835771D02*
X142404762Y-105740533D01*
X142404762Y-105740533D02*
X142404762Y-105645295D01*
X142404762Y-105645295D02*
X142452381Y-105550057D01*
X142452381Y-105550057D02*
X142500000Y-105502438D01*
X142500000Y-105502438D02*
X142595238Y-105454819D01*
X142595238Y-105454819D02*
X142833333Y-105454819D01*
X142833333Y-105454819D02*
X142976190Y-105502438D01*
X143595238Y-105454819D02*
X143785714Y-105454819D01*
X143785714Y-105454819D02*
X143880952Y-105502438D01*
X143880952Y-105502438D02*
X143976190Y-105597676D01*
X143976190Y-105597676D02*
X144023809Y-105788152D01*
X144023809Y-105788152D02*
X144023809Y-106121485D01*
X144023809Y-106121485D02*
X143976190Y-106311961D01*
X143976190Y-106311961D02*
X143880952Y-106407200D01*
X143880952Y-106407200D02*
X143785714Y-106454819D01*
X143785714Y-106454819D02*
X143595238Y-106454819D01*
X143595238Y-106454819D02*
X143500000Y-106407200D01*
X143500000Y-106407200D02*
X143404762Y-106311961D01*
X143404762Y-106311961D02*
X143357143Y-106121485D01*
X143357143Y-106121485D02*
X143357143Y-105788152D01*
X143357143Y-105788152D02*
X143404762Y-105597676D01*
X143404762Y-105597676D02*
X143500000Y-105502438D01*
X143500000Y-105502438D02*
X143595238Y-105454819D01*
X145023809Y-106454819D02*
X144690476Y-105978628D01*
X144452381Y-106454819D02*
X144452381Y-105454819D01*
X144452381Y-105454819D02*
X144833333Y-105454819D01*
X144833333Y-105454819D02*
X144928571Y-105502438D01*
X144928571Y-105502438D02*
X144976190Y-105550057D01*
X144976190Y-105550057D02*
X145023809Y-105645295D01*
X145023809Y-105645295D02*
X145023809Y-105788152D01*
X145023809Y-105788152D02*
X144976190Y-105883390D01*
X144976190Y-105883390D02*
X144928571Y-105931009D01*
X144928571Y-105931009D02*
X144833333Y-105978628D01*
X144833333Y-105978628D02*
X144452381Y-105978628D01*
X145976190Y-106454819D02*
X145404762Y-106454819D01*
X145690476Y-106454819D02*
X145690476Y-105454819D01*
X145690476Y-105454819D02*
X145595238Y-105597676D01*
X145595238Y-105597676D02*
X145500000Y-105692914D01*
X145500000Y-105692914D02*
X145404762Y-105740533D01*
X119880952Y-105954819D02*
X120452380Y-105954819D01*
X120166666Y-106954819D02*
X120166666Y-105954819D01*
X120785714Y-106431009D02*
X121119047Y-106431009D01*
X121261904Y-106954819D02*
X120785714Y-106954819D01*
X120785714Y-106954819D02*
X120785714Y-105954819D01*
X120785714Y-105954819D02*
X121261904Y-105954819D01*
X121690476Y-106954819D02*
X121690476Y-105954819D01*
X121690476Y-105954819D02*
X122023809Y-106669104D01*
X122023809Y-106669104D02*
X122357142Y-105954819D01*
X122357142Y-105954819D02*
X122357142Y-106954819D01*
X122833333Y-106954819D02*
X122833333Y-105954819D01*
X122833333Y-105954819D02*
X123214285Y-105954819D01*
X123214285Y-105954819D02*
X123309523Y-106002438D01*
X123309523Y-106002438D02*
X123357142Y-106050057D01*
X123357142Y-106050057D02*
X123404761Y-106145295D01*
X123404761Y-106145295D02*
X123404761Y-106288152D01*
X123404761Y-106288152D02*
X123357142Y-106383390D01*
X123357142Y-106383390D02*
X123309523Y-106431009D01*
X123309523Y-106431009D02*
X123214285Y-106478628D01*
X123214285Y-106478628D02*
X122833333Y-106478628D01*
X123595238Y-107050057D02*
X124357142Y-107050057D01*
X124547619Y-106907200D02*
X124690476Y-106954819D01*
X124690476Y-106954819D02*
X124928571Y-106954819D01*
X124928571Y-106954819D02*
X125023809Y-106907200D01*
X125023809Y-106907200D02*
X125071428Y-106859580D01*
X125071428Y-106859580D02*
X125119047Y-106764342D01*
X125119047Y-106764342D02*
X125119047Y-106669104D01*
X125119047Y-106669104D02*
X125071428Y-106573866D01*
X125071428Y-106573866D02*
X125023809Y-106526247D01*
X125023809Y-106526247D02*
X124928571Y-106478628D01*
X124928571Y-106478628D02*
X124738095Y-106431009D01*
X124738095Y-106431009D02*
X124642857Y-106383390D01*
X124642857Y-106383390D02*
X124595238Y-106335771D01*
X124595238Y-106335771D02*
X124547619Y-106240533D01*
X124547619Y-106240533D02*
X124547619Y-106145295D01*
X124547619Y-106145295D02*
X124595238Y-106050057D01*
X124595238Y-106050057D02*
X124642857Y-106002438D01*
X124642857Y-106002438D02*
X124738095Y-105954819D01*
X124738095Y-105954819D02*
X124976190Y-105954819D01*
X124976190Y-105954819D02*
X125119047Y-106002438D01*
X125547619Y-106431009D02*
X125880952Y-106431009D01*
X126023809Y-106954819D02*
X125547619Y-106954819D01*
X125547619Y-106954819D02*
X125547619Y-105954819D01*
X125547619Y-105954819D02*
X126023809Y-105954819D01*
X126452381Y-106954819D02*
X126452381Y-105954819D01*
X126452381Y-105954819D02*
X127023809Y-106954819D01*
X127023809Y-106954819D02*
X127023809Y-105954819D01*
X127452381Y-106907200D02*
X127595238Y-106954819D01*
X127595238Y-106954819D02*
X127833333Y-106954819D01*
X127833333Y-106954819D02*
X127928571Y-106907200D01*
X127928571Y-106907200D02*
X127976190Y-106859580D01*
X127976190Y-106859580D02*
X128023809Y-106764342D01*
X128023809Y-106764342D02*
X128023809Y-106669104D01*
X128023809Y-106669104D02*
X127976190Y-106573866D01*
X127976190Y-106573866D02*
X127928571Y-106526247D01*
X127928571Y-106526247D02*
X127833333Y-106478628D01*
X127833333Y-106478628D02*
X127642857Y-106431009D01*
X127642857Y-106431009D02*
X127547619Y-106383390D01*
X127547619Y-106383390D02*
X127500000Y-106335771D01*
X127500000Y-106335771D02*
X127452381Y-106240533D01*
X127452381Y-106240533D02*
X127452381Y-106145295D01*
X127452381Y-106145295D02*
X127500000Y-106050057D01*
X127500000Y-106050057D02*
X127547619Y-106002438D01*
X127547619Y-106002438D02*
X127642857Y-105954819D01*
X127642857Y-105954819D02*
X127880952Y-105954819D01*
X127880952Y-105954819D02*
X128023809Y-106002438D01*
X128642857Y-105954819D02*
X128833333Y-105954819D01*
X128833333Y-105954819D02*
X128928571Y-106002438D01*
X128928571Y-106002438D02*
X129023809Y-106097676D01*
X129023809Y-106097676D02*
X129071428Y-106288152D01*
X129071428Y-106288152D02*
X129071428Y-106621485D01*
X129071428Y-106621485D02*
X129023809Y-106811961D01*
X129023809Y-106811961D02*
X128928571Y-106907200D01*
X128928571Y-106907200D02*
X128833333Y-106954819D01*
X128833333Y-106954819D02*
X128642857Y-106954819D01*
X128642857Y-106954819D02*
X128547619Y-106907200D01*
X128547619Y-106907200D02*
X128452381Y-106811961D01*
X128452381Y-106811961D02*
X128404762Y-106621485D01*
X128404762Y-106621485D02*
X128404762Y-106288152D01*
X128404762Y-106288152D02*
X128452381Y-106097676D01*
X128452381Y-106097676D02*
X128547619Y-106002438D01*
X128547619Y-106002438D02*
X128642857Y-105954819D01*
X130071428Y-106954819D02*
X129738095Y-106478628D01*
X129500000Y-106954819D02*
X129500000Y-105954819D01*
X129500000Y-105954819D02*
X129880952Y-105954819D01*
X129880952Y-105954819D02*
X129976190Y-106002438D01*
X129976190Y-106002438D02*
X130023809Y-106050057D01*
X130023809Y-106050057D02*
X130071428Y-106145295D01*
X130071428Y-106145295D02*
X130071428Y-106288152D01*
X130071428Y-106288152D02*
X130023809Y-106383390D01*
X130023809Y-106383390D02*
X129976190Y-106431009D01*
X129976190Y-106431009D02*
X129880952Y-106478628D01*
X129880952Y-106478628D02*
X129500000Y-106478628D01*
X131023809Y-106954819D02*
X130452381Y-106954819D01*
X130738095Y-106954819D02*
X130738095Y-105954819D01*
X130738095Y-105954819D02*
X130642857Y-106097676D01*
X130642857Y-106097676D02*
X130547619Y-106192914D01*
X130547619Y-106192914D02*
X130452381Y-106240533D01*
X97095238Y-83954819D02*
X97666666Y-83954819D01*
X97380952Y-84954819D02*
X97380952Y-83954819D01*
X98000000Y-83954819D02*
X98000000Y-84764342D01*
X98000000Y-84764342D02*
X98047619Y-84859580D01*
X98047619Y-84859580D02*
X98095238Y-84907200D01*
X98095238Y-84907200D02*
X98190476Y-84954819D01*
X98190476Y-84954819D02*
X98380952Y-84954819D01*
X98380952Y-84954819D02*
X98476190Y-84907200D01*
X98476190Y-84907200D02*
X98523809Y-84859580D01*
X98523809Y-84859580D02*
X98571428Y-84764342D01*
X98571428Y-84764342D02*
X98571428Y-83954819D01*
X99619047Y-84954819D02*
X99285714Y-84478628D01*
X99047619Y-84954819D02*
X99047619Y-83954819D01*
X99047619Y-83954819D02*
X99428571Y-83954819D01*
X99428571Y-83954819D02*
X99523809Y-84002438D01*
X99523809Y-84002438D02*
X99571428Y-84050057D01*
X99571428Y-84050057D02*
X99619047Y-84145295D01*
X99619047Y-84145295D02*
X99619047Y-84288152D01*
X99619047Y-84288152D02*
X99571428Y-84383390D01*
X99571428Y-84383390D02*
X99523809Y-84431009D01*
X99523809Y-84431009D02*
X99428571Y-84478628D01*
X99428571Y-84478628D02*
X99047619Y-84478628D01*
X100380952Y-84431009D02*
X100523809Y-84478628D01*
X100523809Y-84478628D02*
X100571428Y-84526247D01*
X100571428Y-84526247D02*
X100619047Y-84621485D01*
X100619047Y-84621485D02*
X100619047Y-84764342D01*
X100619047Y-84764342D02*
X100571428Y-84859580D01*
X100571428Y-84859580D02*
X100523809Y-84907200D01*
X100523809Y-84907200D02*
X100428571Y-84954819D01*
X100428571Y-84954819D02*
X100047619Y-84954819D01*
X100047619Y-84954819D02*
X100047619Y-83954819D01*
X100047619Y-83954819D02*
X100380952Y-83954819D01*
X100380952Y-83954819D02*
X100476190Y-84002438D01*
X100476190Y-84002438D02*
X100523809Y-84050057D01*
X100523809Y-84050057D02*
X100571428Y-84145295D01*
X100571428Y-84145295D02*
X100571428Y-84240533D01*
X100571428Y-84240533D02*
X100523809Y-84335771D01*
X100523809Y-84335771D02*
X100476190Y-84383390D01*
X100476190Y-84383390D02*
X100380952Y-84431009D01*
X100380952Y-84431009D02*
X100047619Y-84431009D01*
X101047619Y-84954819D02*
X101047619Y-83954819D01*
X101523809Y-84954819D02*
X101523809Y-83954819D01*
X101523809Y-83954819D02*
X101761904Y-83954819D01*
X101761904Y-83954819D02*
X101904761Y-84002438D01*
X101904761Y-84002438D02*
X101999999Y-84097676D01*
X101999999Y-84097676D02*
X102047618Y-84192914D01*
X102047618Y-84192914D02*
X102095237Y-84383390D01*
X102095237Y-84383390D02*
X102095237Y-84526247D01*
X102095237Y-84526247D02*
X102047618Y-84716723D01*
X102047618Y-84716723D02*
X101999999Y-84811961D01*
X101999999Y-84811961D02*
X101904761Y-84907200D01*
X101904761Y-84907200D02*
X101761904Y-84954819D01*
X101761904Y-84954819D02*
X101523809Y-84954819D01*
X102523809Y-84954819D02*
X102523809Y-83954819D01*
X102857142Y-83954819D02*
X103428570Y-83954819D01*
X103142856Y-84954819D02*
X103142856Y-83954819D01*
X103952380Y-84478628D02*
X103952380Y-84954819D01*
X103619047Y-83954819D02*
X103952380Y-84478628D01*
X103952380Y-84478628D02*
X104285713Y-83954819D01*
X104380952Y-85050057D02*
X105142856Y-85050057D01*
X105333333Y-84907200D02*
X105476190Y-84954819D01*
X105476190Y-84954819D02*
X105714285Y-84954819D01*
X105714285Y-84954819D02*
X105809523Y-84907200D01*
X105809523Y-84907200D02*
X105857142Y-84859580D01*
X105857142Y-84859580D02*
X105904761Y-84764342D01*
X105904761Y-84764342D02*
X105904761Y-84669104D01*
X105904761Y-84669104D02*
X105857142Y-84573866D01*
X105857142Y-84573866D02*
X105809523Y-84526247D01*
X105809523Y-84526247D02*
X105714285Y-84478628D01*
X105714285Y-84478628D02*
X105523809Y-84431009D01*
X105523809Y-84431009D02*
X105428571Y-84383390D01*
X105428571Y-84383390D02*
X105380952Y-84335771D01*
X105380952Y-84335771D02*
X105333333Y-84240533D01*
X105333333Y-84240533D02*
X105333333Y-84145295D01*
X105333333Y-84145295D02*
X105380952Y-84050057D01*
X105380952Y-84050057D02*
X105428571Y-84002438D01*
X105428571Y-84002438D02*
X105523809Y-83954819D01*
X105523809Y-83954819D02*
X105761904Y-83954819D01*
X105761904Y-83954819D02*
X105904761Y-84002438D01*
X106333333Y-84431009D02*
X106666666Y-84431009D01*
X106809523Y-84954819D02*
X106333333Y-84954819D01*
X106333333Y-84954819D02*
X106333333Y-83954819D01*
X106333333Y-83954819D02*
X106809523Y-83954819D01*
X107238095Y-84954819D02*
X107238095Y-83954819D01*
X107238095Y-83954819D02*
X107809523Y-84954819D01*
X107809523Y-84954819D02*
X107809523Y-83954819D01*
X108238095Y-84907200D02*
X108380952Y-84954819D01*
X108380952Y-84954819D02*
X108619047Y-84954819D01*
X108619047Y-84954819D02*
X108714285Y-84907200D01*
X108714285Y-84907200D02*
X108761904Y-84859580D01*
X108761904Y-84859580D02*
X108809523Y-84764342D01*
X108809523Y-84764342D02*
X108809523Y-84669104D01*
X108809523Y-84669104D02*
X108761904Y-84573866D01*
X108761904Y-84573866D02*
X108714285Y-84526247D01*
X108714285Y-84526247D02*
X108619047Y-84478628D01*
X108619047Y-84478628D02*
X108428571Y-84431009D01*
X108428571Y-84431009D02*
X108333333Y-84383390D01*
X108333333Y-84383390D02*
X108285714Y-84335771D01*
X108285714Y-84335771D02*
X108238095Y-84240533D01*
X108238095Y-84240533D02*
X108238095Y-84145295D01*
X108238095Y-84145295D02*
X108285714Y-84050057D01*
X108285714Y-84050057D02*
X108333333Y-84002438D01*
X108333333Y-84002438D02*
X108428571Y-83954819D01*
X108428571Y-83954819D02*
X108666666Y-83954819D01*
X108666666Y-83954819D02*
X108809523Y-84002438D01*
X109428571Y-83954819D02*
X109619047Y-83954819D01*
X109619047Y-83954819D02*
X109714285Y-84002438D01*
X109714285Y-84002438D02*
X109809523Y-84097676D01*
X109809523Y-84097676D02*
X109857142Y-84288152D01*
X109857142Y-84288152D02*
X109857142Y-84621485D01*
X109857142Y-84621485D02*
X109809523Y-84811961D01*
X109809523Y-84811961D02*
X109714285Y-84907200D01*
X109714285Y-84907200D02*
X109619047Y-84954819D01*
X109619047Y-84954819D02*
X109428571Y-84954819D01*
X109428571Y-84954819D02*
X109333333Y-84907200D01*
X109333333Y-84907200D02*
X109238095Y-84811961D01*
X109238095Y-84811961D02*
X109190476Y-84621485D01*
X109190476Y-84621485D02*
X109190476Y-84288152D01*
X109190476Y-84288152D02*
X109238095Y-84097676D01*
X109238095Y-84097676D02*
X109333333Y-84002438D01*
X109333333Y-84002438D02*
X109428571Y-83954819D01*
X110857142Y-84954819D02*
X110523809Y-84478628D01*
X110285714Y-84954819D02*
X110285714Y-83954819D01*
X110285714Y-83954819D02*
X110666666Y-83954819D01*
X110666666Y-83954819D02*
X110761904Y-84002438D01*
X110761904Y-84002438D02*
X110809523Y-84050057D01*
X110809523Y-84050057D02*
X110857142Y-84145295D01*
X110857142Y-84145295D02*
X110857142Y-84288152D01*
X110857142Y-84288152D02*
X110809523Y-84383390D01*
X110809523Y-84383390D02*
X110761904Y-84431009D01*
X110761904Y-84431009D02*
X110666666Y-84478628D01*
X110666666Y-84478628D02*
X110285714Y-84478628D01*
X111809523Y-84954819D02*
X111238095Y-84954819D01*
X111523809Y-84954819D02*
X111523809Y-83954819D01*
X111523809Y-83954819D02*
X111428571Y-84097676D01*
X111428571Y-84097676D02*
X111333333Y-84192914D01*
X111333333Y-84192914D02*
X111238095Y-84240533D01*
X146954819Y-84166666D02*
X146478628Y-84499999D01*
X146954819Y-84738094D02*
X145954819Y-84738094D01*
X145954819Y-84738094D02*
X145954819Y-84357142D01*
X145954819Y-84357142D02*
X146002438Y-84261904D01*
X146002438Y-84261904D02*
X146050057Y-84214285D01*
X146050057Y-84214285D02*
X146145295Y-84166666D01*
X146145295Y-84166666D02*
X146288152Y-84166666D01*
X146288152Y-84166666D02*
X146383390Y-84214285D01*
X146383390Y-84214285D02*
X146431009Y-84261904D01*
X146431009Y-84261904D02*
X146478628Y-84357142D01*
X146478628Y-84357142D02*
X146478628Y-84738094D01*
X146050057Y-83785713D02*
X146002438Y-83738094D01*
X146002438Y-83738094D02*
X145954819Y-83642856D01*
X145954819Y-83642856D02*
X145954819Y-83404761D01*
X145954819Y-83404761D02*
X146002438Y-83309523D01*
X146002438Y-83309523D02*
X146050057Y-83261904D01*
X146050057Y-83261904D02*
X146145295Y-83214285D01*
X146145295Y-83214285D02*
X146240533Y-83214285D01*
X146240533Y-83214285D02*
X146383390Y-83261904D01*
X146383390Y-83261904D02*
X146954819Y-83833332D01*
X146954819Y-83833332D02*
X146954819Y-83214285D01*
X119954819Y-97166666D02*
X119478628Y-97499999D01*
X119954819Y-97738094D02*
X118954819Y-97738094D01*
X118954819Y-97738094D02*
X118954819Y-97357142D01*
X118954819Y-97357142D02*
X119002438Y-97261904D01*
X119002438Y-97261904D02*
X119050057Y-97214285D01*
X119050057Y-97214285D02*
X119145295Y-97166666D01*
X119145295Y-97166666D02*
X119288152Y-97166666D01*
X119288152Y-97166666D02*
X119383390Y-97214285D01*
X119383390Y-97214285D02*
X119431009Y-97261904D01*
X119431009Y-97261904D02*
X119478628Y-97357142D01*
X119478628Y-97357142D02*
X119478628Y-97738094D01*
X119954819Y-96214285D02*
X119954819Y-96785713D01*
X119954819Y-96499999D02*
X118954819Y-96499999D01*
X118954819Y-96499999D02*
X119097676Y-96595237D01*
X119097676Y-96595237D02*
X119192914Y-96690475D01*
X119192914Y-96690475D02*
X119240533Y-96785713D01*
%TO.C,C1*%
D11*
X118380000Y-79130000D02*
X123620000Y-79130000D01*
X118380000Y-79467000D02*
X118380000Y-79130000D01*
X118380000Y-81870000D02*
X118380000Y-81533000D01*
X123620000Y-79130000D02*
X123620000Y-79467000D01*
X123620000Y-81533000D02*
X123620000Y-81870000D01*
X123620000Y-81870000D02*
X118380000Y-81870000D01*
%TO.C,U1*%
X125380000Y-72255000D02*
X125380000Y-78415000D01*
X125380000Y-72255000D02*
X143620000Y-72255000D01*
X125380000Y-97215000D02*
X125380000Y-97995000D01*
X125380000Y-97995000D02*
X126380000Y-97995000D01*
X143620000Y-72255000D02*
X143620000Y-78670000D01*
X143620000Y-97215000D02*
X143620000Y-97995000D01*
X143620000Y-97995000D02*
X142620000Y-97995000D01*
X125375000Y-79140000D02*
X124875000Y-79140000D01*
X125375000Y-78640000D01*
X125375000Y-79140000D01*
G36*
X125375000Y-79140000D02*
G01*
X124875000Y-79140000D01*
X125375000Y-78640000D01*
X125375000Y-79140000D01*
G37*
%TO.C,R3*%
X148400000Y-80730000D02*
X148730000Y-80730000D01*
X148400000Y-87270000D02*
X148400000Y-80730000D01*
X148730000Y-87270000D02*
X148400000Y-87270000D01*
X150810000Y-87270000D02*
X151140000Y-87270000D01*
X151140000Y-80730000D02*
X150810000Y-80730000D01*
X151140000Y-87270000D02*
X151140000Y-80730000D01*
%TO.C,ULTRASONIC_SENSOR1*%
X145120000Y-90620000D02*
X146500000Y-90620000D01*
X145120000Y-92000000D02*
X145120000Y-90620000D01*
X145120000Y-93270000D02*
X145120000Y-101000000D01*
X145120000Y-93270000D02*
X147880000Y-93270000D01*
X145120000Y-101000000D02*
X147880000Y-101000000D01*
X147880000Y-93270000D02*
X147880000Y-101000000D01*
%TO.C,PH_SENSOR1*%
X115120000Y-83580000D02*
X116500000Y-83580000D01*
X115120000Y-84960000D02*
X115120000Y-83580000D01*
X115120000Y-86230000D02*
X115120000Y-91420000D01*
X115120000Y-86230000D02*
X117880000Y-86230000D01*
X115120000Y-91420000D02*
X117880000Y-91420000D01*
X117880000Y-86230000D02*
X117880000Y-91420000D01*
%TO.C,TDS_SENSOR1*%
X135580000Y-102380000D02*
X135580000Y-101000000D01*
X136960000Y-102380000D02*
X135580000Y-102380000D01*
X138230000Y-99620000D02*
X143420000Y-99620000D01*
X138230000Y-102380000D02*
X138230000Y-99620000D01*
X138230000Y-102380000D02*
X143420000Y-102380000D01*
X143420000Y-102380000D02*
X143420000Y-99620000D01*
%TO.C,TEMP_SENSOR1*%
X122580000Y-102380000D02*
X122580000Y-101000000D01*
X123960000Y-102380000D02*
X122580000Y-102380000D01*
X125230000Y-99620000D02*
X130420000Y-99620000D01*
X125230000Y-102380000D02*
X125230000Y-99620000D01*
X125230000Y-102380000D02*
X130420000Y-102380000D01*
X130420000Y-102380000D02*
X130420000Y-99620000D01*
%TO.C,TURBIDITY_SENSOR1*%
X119620000Y-83580000D02*
X121000000Y-83580000D01*
X119620000Y-84960000D02*
X119620000Y-83580000D01*
X119620000Y-86230000D02*
X119620000Y-91420000D01*
X119620000Y-86230000D02*
X122380000Y-86230000D01*
X119620000Y-91420000D02*
X122380000Y-91420000D01*
X122380000Y-86230000D02*
X122380000Y-91420000D01*
%TO.C,R2*%
X145130000Y-80730000D02*
X145460000Y-80730000D01*
X145130000Y-87270000D02*
X145130000Y-80730000D01*
X145460000Y-87270000D02*
X145130000Y-87270000D01*
X147540000Y-87270000D02*
X147870000Y-87270000D01*
X147870000Y-80730000D02*
X147540000Y-80730000D01*
X147870000Y-87270000D02*
X147870000Y-80730000D01*
%TO.C,R1*%
X118130000Y-93730000D02*
X118460000Y-93730000D01*
X118130000Y-100270000D02*
X118130000Y-93730000D01*
X118460000Y-100270000D02*
X118130000Y-100270000D01*
X120540000Y-100270000D02*
X120870000Y-100270000D01*
X120870000Y-93730000D02*
X120540000Y-93730000D01*
X120870000Y-100270000D02*
X120870000Y-93730000D01*
%TD*%
M02*
