%TF.GenerationSoftware,KiCad,Pcbnew,10.0.3*%
%TF.CreationDate,2026-06-01T12:34:16+05:30*%
%TF.ProjectId,JalRakshak V1,4a616c52-616b-4736-9861-6b2056312e6b,rev?*%
%TF.SameCoordinates,Original*%
%TF.FileFunction,Other,User*%
%FSLAX46Y46*%
G04 Gerber Fmt 4.6, Leading zero omitted, Abs format (unit mm)*
G04 Created by KiCad (PCBNEW 10.0.3) date 2026-06-01 12:34:16*
%MOMM*%
%LPD*%
G01*
G04 APERTURE LIST*
%ADD10C,0.050000*%
G04 APERTURE END LIST*
%TO.C,C1*%
D10*
X117450000Y-79000000D02*
X124550000Y-79000000D01*
X124550000Y-82000000D01*
X117450000Y-82000000D01*
X117450000Y-79000000D01*
%TO.C,U1*%
X110500000Y-57375000D02*
X110500000Y-78315000D01*
X110500000Y-78315000D02*
X124750000Y-78315000D01*
X124750000Y-98625000D02*
X124750000Y-78315000D01*
X124750000Y-98625000D02*
X144250000Y-98625000D01*
X144250000Y-78315000D02*
X144250000Y-98625000D01*
X144250000Y-78315000D02*
X158500000Y-78315000D01*
X158500000Y-57375000D02*
X110500000Y-57375000D01*
X158500000Y-78315000D02*
X158500000Y-57375000D01*
%TO.C,R3*%
X148270000Y-79140000D02*
X151270000Y-79140000D01*
X151270000Y-88860000D01*
X148270000Y-88860000D01*
X148270000Y-79140000D01*
%TO.C,ULTRASONIC_SENSOR1*%
X144730000Y-90230000D02*
X148270000Y-90230000D01*
X148270000Y-101390000D01*
X144730000Y-101390000D01*
X144730000Y-90230000D01*
%TO.C,PH_SENSOR1*%
X114730000Y-83190000D02*
X118270000Y-83190000D01*
X118270000Y-91810000D01*
X114730000Y-91810000D01*
X114730000Y-83190000D01*
%TO.C,TDS_SENSOR1*%
X135190000Y-99230000D02*
X143810000Y-99230000D01*
X143810000Y-102770000D01*
X135190000Y-102770000D01*
X135190000Y-99230000D01*
%TO.C,TEMP_SENSOR1*%
X122190000Y-99230000D02*
X130810000Y-99230000D01*
X130810000Y-102770000D01*
X122190000Y-102770000D01*
X122190000Y-99230000D01*
%TO.C,TURBIDITY_SENSOR1*%
X119230000Y-83190000D02*
X122770000Y-83190000D01*
X122770000Y-91810000D01*
X119230000Y-91810000D01*
X119230000Y-83190000D01*
%TO.C,R2*%
X145000000Y-79140000D02*
X148000000Y-79140000D01*
X148000000Y-88860000D01*
X145000000Y-88860000D01*
X145000000Y-79140000D01*
%TO.C,R1*%
X118000000Y-92140000D02*
X121000000Y-92140000D01*
X121000000Y-101860000D01*
X118000000Y-101860000D01*
X118000000Y-92140000D01*
%TD*%
M02*
