%TF.GenerationSoftware,KiCad,Pcbnew,10.0.3*%
%TF.CreationDate,2026-06-01T12:34:16+05:30*%
%TF.ProjectId,JalRakshak V1,4a616c52-616b-4736-9861-6b2056312e6b,rev?*%
%TF.SameCoordinates,Original*%
%TF.FileFunction,Soldermask,Top*%
%TF.FilePolarity,Negative*%
%FSLAX46Y46*%
G04 Gerber Fmt 4.6, Leading zero omitted, Abs format (unit mm)*
G04 Created by KiCad (PCBNEW 10.0.3) date 2026-06-01 12:34:16*
%MOMM*%
%LPD*%
G01*
G04 APERTURE LIST*
%ADD10C,1.600000*%
%ADD11R,1.500000X0.900000*%
%ADD12R,0.900000X1.500000*%
%ADD13C,0.600000*%
%ADD14R,4.200000X4.200000*%
%ADD15R,1.700000X1.700000*%
%ADD16C,1.700000*%
G04 APERTURE END LIST*
D10*
%TO.C,C1*%
X118500000Y-80500000D03*
X123500000Y-80500000D03*
%TD*%
D11*
%TO.C,U1*%
X125750000Y-79865000D03*
X125750000Y-81135000D03*
X125750000Y-82405000D03*
X125750000Y-83675000D03*
X125750000Y-84945000D03*
X125750000Y-86215000D03*
X125750000Y-87485000D03*
X125750000Y-88755000D03*
X125750000Y-90025000D03*
X125750000Y-91295000D03*
X125750000Y-92565000D03*
X125750000Y-93835000D03*
X125750000Y-95105000D03*
X125750000Y-96375000D03*
D12*
X128790000Y-97625000D03*
X130060000Y-97625000D03*
X131330000Y-97625000D03*
X132600000Y-97625000D03*
X133870000Y-97625000D03*
X135140000Y-97625000D03*
X136410000Y-97625000D03*
X137680000Y-97625000D03*
X138950000Y-97625000D03*
X140220000Y-97625000D03*
D11*
X143250000Y-96375000D03*
X143250000Y-95105000D03*
X143250000Y-93835000D03*
X143250000Y-92565000D03*
X143250000Y-91295000D03*
X143250000Y-90025000D03*
X143250000Y-88755000D03*
X143250000Y-87485000D03*
X143250000Y-86215000D03*
X143250000Y-84945000D03*
X143250000Y-83675000D03*
X143250000Y-82405000D03*
X143250000Y-81135000D03*
X143250000Y-79865000D03*
D13*
X132295000Y-86442500D03*
X132295000Y-87967500D03*
X133057500Y-85680000D03*
X133057500Y-87205000D03*
X133057500Y-88730000D03*
X133820000Y-86442500D03*
D14*
X133820000Y-87205000D03*
D13*
X133820000Y-87967500D03*
X134582500Y-85680000D03*
X134582500Y-87205000D03*
X134582500Y-88730000D03*
X135345000Y-86442500D03*
X135345000Y-87967500D03*
%TD*%
D10*
%TO.C,R3*%
X149770000Y-87810000D03*
X149770000Y-80190000D03*
%TD*%
D15*
%TO.C,ULTRASONIC_SENSOR1*%
X146500000Y-92000000D03*
D16*
X146500000Y-94540000D03*
X146500000Y-97080000D03*
X146500000Y-99620000D03*
%TD*%
D15*
%TO.C,PH_SENSOR1*%
X116500000Y-84960000D03*
D16*
X116500000Y-87500000D03*
X116500000Y-90040000D03*
%TD*%
D15*
%TO.C,TDS_SENSOR1*%
X136960000Y-101000000D03*
D16*
X139500000Y-101000000D03*
X142040000Y-101000000D03*
%TD*%
D15*
%TO.C,TEMP_SENSOR1*%
X123960000Y-101000000D03*
D16*
X126500000Y-101000000D03*
X129040000Y-101000000D03*
%TD*%
D15*
%TO.C,TURBIDITY_SENSOR1*%
X121000000Y-84960000D03*
D16*
X121000000Y-87500000D03*
X121000000Y-90040000D03*
%TD*%
D10*
%TO.C,R2*%
X146500000Y-87810000D03*
X146500000Y-80190000D03*
%TD*%
%TO.C,R1*%
X119500000Y-100810000D03*
X119500000Y-93190000D03*
%TD*%
M02*
